<svg width="76" height="77" viewBox="0 0 76 77" fill="none" xmlns="http://www.w3.org/2000/svg">
<g opacity="0.11">
<path d="M60.0367 22.5686L70.3847 18.1635L71.9263 21.7854L63.6705 27.4127L63.7836 27.6788L73.5623 25.6289L75.1039 29.2508L64.7559 33.6558L63.9505 31.7635L72.8644 27.9691L72.7513 27.703L63.0821 29.7235L61.7105 26.5009L69.8692 20.9325L69.756 20.6664L60.8421 24.4609L60.0367 22.5686Z" fill="white"/>
<path d="M64.451 34.8982L75.6959 34.7158L75.8131 41.9446L73.8852 41.9756L73.8025 36.8675L71.1198 36.9109L71.1952 41.5696L69.2678 41.6005L69.1924 36.9418L66.4131 36.9868L66.4973 42.1915L64.5693 42.2225L64.451 34.8982Z" fill="white"/>
<path d="M63.6049 45.4724L72.4935 48.2698L73.4771 45.1433L75.3162 45.7219L72.712 53.9973L70.8729 53.4187L71.8565 50.2923L62.9679 47.4949L63.6049 45.4724Z" fill="white"/>
<path d="M62.5303 49.661L70.0902 58.4964L67.9856 61.5335L57.0579 57.5578L58.3024 55.7616L60.6839 56.6687L62.9714 53.3671L61.2858 51.4562L62.5303 49.661ZM64.2991 54.8937L62.5788 57.3765L67.8595 59.3741L68.0243 59.1365L64.2991 54.8937Z" fill="white"/>
<path d="M56.9604 57.9975L62.8445 67.5819L59.4897 69.6411L52.7057 62.3059L52.4592 62.4573L55.9298 71.8263L52.575 73.8855L46.6914 64.301L48.4437 63.2249L53.5121 71.4812L53.7585 71.3299L50.3329 62.0647L53.3178 60.2323L60.0295 67.4802L60.2759 67.3288L55.2076 59.0725L56.9604 57.9975Z" fill="white"/>
<path d="M46.2626 64.1864L44.8208 75.7252L41.1581 76.2144L36.7396 65.4583L38.9052 65.169L39.8377 67.5407L43.8191 67.0091L44.097 64.4757L46.2626 64.1864ZM43.5851 69.0176L40.5914 69.4175L42.6697 74.6667L42.9564 74.6284L43.5851 69.0176Z" fill="white"/>
<path d="M36.2525 65.3069L33.8808 76.3001L29.1063 75.27C28.4151 75.1207 27.8396 74.8707 27.3783 74.5189C26.9175 74.1671 26.5926 73.7414 26.405 73.2403C26.217 72.7397 26.1876 72.1906 26.3167 71.5939L26.3575 71.4053C26.4996 70.7456 26.7718 70.2456 27.1743 69.9051C27.5767 69.5647 28.0282 69.3498 28.5293 69.2609L28.5903 68.9783C28.1759 68.8668 27.8825 68.6529 27.71 68.3362C27.5374 68.0195 27.4982 67.6414 27.5932 67.2017L28.3692 63.6052L30.4423 64.0526L29.7309 67.3505C29.6767 67.6016 29.6984 67.8201 29.795 68.0056C29.8921 68.191 30.0925 68.3161 30.3958 68.3817L33.2856 69.0052L34.1804 64.859L36.2525 65.3069ZM32.8786 70.8903L30.3973 70.3551C29.9055 70.2492 29.4917 70.2993 29.1565 70.5064C28.8217 70.7136 28.6063 71.037 28.5117 71.4766L28.4776 71.6337C28.3826 72.0733 28.4425 72.4561 28.6574 72.7821C28.8723 73.108 29.2308 73.325 29.733 73.4335L32.2142 73.9687L32.8786 70.8903Z" fill="white"/>
<path d="M25.1765 61.8105L20.367 69.792L23.1742 71.4838L22.1792 73.1349L14.7484 68.657L15.7434 67.0059L18.5506 68.6978L23.3601 60.7163L25.1765 61.8105Z" fill="white"/>
<path d="M15.277 53.5851L4.76726 57.5893L3.36573 53.9111L11.8318 48.6051L11.729 48.3349L1.87843 50.0077L0.476898 46.3295L10.9861 42.3253L11.7181 44.2471L2.66573 47.6964L2.76854 47.9666L12.508 46.3192L13.7551 49.5918L5.38873 54.8425L5.49153 55.1127L14.5444 51.6634L15.277 53.5851Z" fill="white"/>
<path d="M11.3115 41.0917L0.070282 40.7596L0.284154 33.5328L2.21107 33.5902L2.05971 38.6968L4.74138 38.7763L4.87931 34.1192L6.80623 34.176L6.6683 38.8332L9.44657 38.9153L9.60052 33.7121L11.5274 33.7694L11.3115 41.0917Z" fill="white"/>
<path d="M12.5859 30.5608L3.81146 27.4234L2.708 30.5096L0.89267 29.8608L3.81353 21.6913L5.62886 22.3401L4.5254 25.4263L13.3004 28.5641L12.5859 30.5608Z" fill="white"/>
<path d="M13.8222 26.4157L6.60425 17.2987L8.82304 14.3438L19.5911 18.7328L18.2789 20.4799L15.934 19.4824L13.522 22.6941L15.1338 24.668L13.8222 26.4157ZM12.2543 21.1195L14.0681 18.7044L8.86696 16.5068L8.69338 16.7382L12.2543 21.1195Z" fill="white"/>
<path d="M19.7042 18.2973L14.191 8.49482L17.6217 6.56532L24.1206 14.1542L24.3727 14.0126L21.2627 4.51751L24.6935 2.58801L30.2066 12.3905L28.414 13.3984L23.6649 4.95456L23.4128 5.09611L26.482 14.4853L23.4294 16.2025L16.9998 8.70353L16.7477 8.84507L21.4968 17.2889L19.7042 18.2973Z" fill="white"/>
<path d="M30.6318 12.5243L32.5127 1.04902L36.1914 0.699802L40.1966 11.6166L38.0212 11.8232L37.1797 9.41794L33.1812 9.79713L32.8072 12.3181L30.6318 12.5243ZM33.4917 7.79841L36.4988 7.51324L34.622 2.18813L34.3342 2.21551L33.4917 7.79841Z" fill="white"/>
<path d="M40.6767 11.7834L43.4694 0.889365L48.2004 2.10234C48.8849 2.27798 49.4511 2.55024 49.8985 2.91909C50.3453 3.28794 50.6538 3.72653 50.8222 4.23383C50.9906 4.74165 50.9988 5.2908 50.8475 5.8823L50.7994 6.06931C50.6321 6.72281 50.3407 7.21203 49.9254 7.53698C49.51 7.86192 49.0507 8.05926 48.546 8.129L48.4742 8.409C48.8839 8.53608 49.1691 8.76132 49.3292 9.08419C49.4893 9.40707 49.5141 9.78677 49.402 10.2223L48.4887 13.7863L46.4342 13.2599L47.2721 9.99185C47.3362 9.74285 47.3227 9.52382 47.2334 9.33526C47.1435 9.14618 46.9482 9.01342 46.6475 8.93644L43.784 8.20236L42.7307 12.3109L40.6767 11.7834ZM44.2629 6.33381L46.7219 6.96406C47.2096 7.08908 47.6244 7.05447 47.9674 6.86023C48.3099 6.66598 48.5372 6.35138 48.6494 5.91537L48.6891 5.75987C48.8007 5.32386 48.7558 4.93951 48.5538 4.60578C48.3518 4.27206 48.0021 4.04114 47.5041 3.91354L45.045 3.28329L44.2629 6.33381Z" fill="white"/>
<path d="M51.6105 15.7023L56.7212 7.9104L53.9807 6.11315L55.0381 4.50084L62.2928 9.25873L61.2353 10.871L58.4947 9.07379L53.384 16.8657L51.6105 15.7023Z" fill="white"/>
</g>
</svg>
